<?xml version="1.0" standalone="no"?>
<!DOCTYPE svg PUBLIC "-//W3C//DTD SVG 20010904//EN"
 "http://www.w3.org/TR/2001/REC-SVG-20010904/DTD/svg10.dtd">
<svg version="1.0" xmlns="http://www.w3.org/2000/svg"
 width="512.000000pt" height="512.000000pt" viewBox="0 0 512.000000 512.000000"
 preserveAspectRatio="xMidYMid meet">

<g transform="translate(0.000000,512.000000) scale(0.100000,-0.100000)"
fill="#000000" stroke="none">
<path d="M1355 5106 c-17 -7 -40 -26 -50 -42 -19 -28 -20 -55 -23 -936 l-2
-908 80 0 c44 0 80 1 80 3 0 1 -11 24 -24 50 -38 75 -50 147 -36 224 14 82 39
132 96 193 l44 47 0 572 0 571 1370 0 1370 0 0 -43 0 -42 -625 -454 -625 -453
0 -1945 c0 -1555 3 -1943 13 -1935 6 5 289 211 627 456 l614 446 24 -30 c13
-16 40 -35 62 -41 51 -15 107 11 133 61 16 33 17 149 15 2092 l-3 2058 -33 32
-32 33 -1523 2 c-1250 2 -1527 0 -1552 -11z m2185 -2865 c88 -88 72 -329 -26
-376 -30 -14 -36 -14 -64 0 -31 16 -63 68 -75 123 l-7 32 -69 0 -69 0 0 50 0
50 69 0 69 0 17 50 c19 56 63 100 102 100 14 0 37 -12 53 -29z"/>
<path d="M1633 3583 c-31 -6 -79 -56 -86 -90 -13 -65 -1 -81 201 -285 l196
-198 -596 0 c-327 0 -610 -3 -627 -6 -75 -15 -118 -99 -86 -167 36 -76 -3 -72
689 -75 l619 -3 -195 -197 c-201 -203 -213 -221 -201 -285 7 -37 55 -84 91
-89 63 -9 81 5 405 330 l317 318 0 45 c0 35 -7 55 -29 85 -37 50 -580 588
-606 601 -28 14 -66 20 -92 16z"/>
<path d="M1280 1738 c0 -420 3 -780 7 -801 7 -46 50 -92 93 -101 37 -7 87 12
115 44 19 21 20 38 23 562 l3 540 -50 54 c-108 118 -128 288 -50 422 10 18 19
35 19 38 0 2 -36 4 -80 4 l-80 0 0 -762z"/>
</g>
</svg>
